# xmcd
#
# Track frame offsets:
#	150
#	12769
#	26158
#	40855
#	56459
#	68876
#	83297
#	98067
#	114159
#	127730
#	144851
#	160980
#	176635
#	190545
#	206091
#	221811
#	234490
#	249373
#	266094
#	278760
#	293118
#	306505
#
# Disc length: 4248
#
# Revision: 2
# Processed by: cddbd v1.5.1PL0 Copyright (c) Steve Scherf et al.
# Submitted via: audiograbber 1.82.02
# Normalized: r1:DSETVAR2
#
DISCID=2c109616
DTITLE=Various Artist - Не пропусти
DYEAR=2004
DGENRE=pop
TTITLE0=Студия 54 - Неважно это
TTITLE1=Tarakan - Dudu (NeoMaster Russian dance Mix)
TTITLE2=Online - Еду я на море
TTITLE3=O - Zone - Dragostea Din Tei (DJ ROSS radio mix)
TTITLE4=Юлия Савичева - Belive Me
TTITLE5=Flexy - Mamasita (DJ Skydreamer mix)
TTITLE6=Ангина - Кому какое дело
TTITLE7=Benassi Bros. feat. sandy - Illusion (Satisfaction mix)
TTITLE8=Супер Банда VS. Фабрики - Шоу начинается
TTITLE9=Света - Ты не мой
TTITLE10=Despina Vandi - Opa Opa
TTITLE11=Премьер Министр - Наташка (remix)
TTITLE12=Краски - Хочешь ?
TTITLE13=Никита Малинин - Котенок ремикс
TTITLE14=Русский Размер - Dejavu
TTITLE15=Bosson - Etharisto
TTITLE16=Андрей Губин - Солнышко
TTITLE17=Sugarbabes - In The Middle
TTITLE18=Руки Вверх - Хей парни
TTITLE19=Катя Лель - Долетай Dance Remix
TTITLE20=Глюкоза и Сердючка - Жениха хотела
TTITLE21=Мальчишник - Буриме
EXTD=
EXTT0=
EXTT1=
EXTT2=
EXTT3=
EXTT4=
EXTT5=
EXTT6=
EXTT7=
EXTT8=
EXTT9=
EXTT10=
EXTT11=
EXTT12=
EXTT13=
EXTT14=
EXTT15=
EXTT16=
EXTT17=
EXTT18=
EXTT19=
EXTT20=
EXTT21=
PLAYORDER=
